<mxfile host="app.diagrams.net" agent="Mozilla/5.0 (Macintosh; Intel Mac OS X 10_15_7) AppleWebKit/537.36 (KHTML, like Gecko) Chrome/131.0.0.0 Safari/537.36" version="26.0.1">
  <diagram name="Page-1" id="2YBvvXClWsGukQMizWep">
    <mxGraphModel dx="1434" dy="668" grid="1" gridSize="10" guides="1" tooltips="1" connect="1" arrows="1" fold="1" page="1" pageScale="1" pageWidth="850" pageHeight="1100" math="0" shadow="0">
      <root>
        <mxCell id="0" />
        <mxCell id="1" parent="0" />
        <mxCell id="Dk-oPEJcy97Ib1sJZU_--22" value="" style="shape=umlLifeline;perimeter=lifelinePerimeter;whiteSpace=wrap;html=1;container=1;dropTarget=0;collapsible=0;recursiveResize=0;outlineConnect=0;portConstraint=eastwest;newEdgeStyle={&quot;curved&quot;:0,&quot;rounded&quot;:0};participant=umlActor;" parent="1" vertex="1">
          <mxGeometry x="610" y="100" width="20" height="880" as="geometry" />
        </mxCell>
        <mxCell id="Dk-oPEJcy97Ib1sJZU_--3" value="sd CEM allume la lumiere" style="shape=umlFrame;whiteSpace=wrap;html=1;pointerEvents=0;width=170;height=30;" parent="1" vertex="1">
          <mxGeometry x="20" y="20" width="800" height="980" as="geometry" />
        </mxCell>
        <mxCell id="Dk-oPEJcy97Ib1sJZU_--21" value="" style="shape=umlLifeline;perimeter=lifelinePerimeter;whiteSpace=wrap;html=1;container=1;dropTarget=0;collapsible=0;recursiveResize=0;outlineConnect=0;portConstraint=eastwest;newEdgeStyle={&quot;curved&quot;:0,&quot;rounded&quot;:0};participant=umlActor;" parent="1" vertex="1">
          <mxGeometry x="170" y="100" width="20" height="880" as="geometry" />
        </mxCell>
        <mxCell id="Dk-oPEJcy97Ib1sJZU_--23" value="CEM" style="shape=umlLifeline;perimeter=lifelinePerimeter;whiteSpace=wrap;html=1;container=1;dropTarget=0;collapsible=0;recursiveResize=0;outlineConnect=0;portConstraint=eastwest;newEdgeStyle={&quot;curved&quot;:0,&quot;rounded&quot;:0};" parent="1" vertex="1">
          <mxGeometry x="355" y="100" width="130" height="880" as="geometry" />
        </mxCell>
        <mxCell id="Dk-oPEJcy97Ib1sJZU_--26" value="entrer/manoeuvrer&lt;br&gt;&amp;nbsp;dans la zone parking" style="html=1;verticalAlign=bottom;endArrow=block;curved=0;rounded=0;" parent="1" edge="1">
          <mxGeometry x="0.0042" y="10" width="80" relative="1" as="geometry">
            <mxPoint x="180" y="230" as="sourcePoint" />
            <mxPoint x="420" y="230" as="targetPoint" />
            <mxPoint as="offset" />
          </mxGeometry>
        </mxCell>
        <mxCell id="-AHTXcNS6uZ1yGS0YK7j-1" value="" style="endArrow=classic;html=1;rounded=0;" parent="1" target="Dk-oPEJcy97Ib1sJZU_--23" edge="1">
          <mxGeometry width="50" height="50" relative="1" as="geometry">
            <mxPoint x="619.5" y="350" as="sourcePoint" />
            <mxPoint x="429.5" y="350" as="targetPoint" />
          </mxGeometry>
        </mxCell>
        <mxCell id="-AHTXcNS6uZ1yGS0YK7j-3" value="émettre signal de mouvement" style="edgeLabel;html=1;align=center;verticalAlign=middle;resizable=0;points=[];" parent="-AHTXcNS6uZ1yGS0YK7j-1" vertex="1" connectable="0">
          <mxGeometry x="0.2612" y="-1" relative="1" as="geometry">
            <mxPoint x="20" y="-9" as="offset" />
          </mxGeometry>
        </mxCell>
        <mxCell id="-AHTXcNS6uZ1yGS0YK7j-4" value="" style="endArrow=classic;html=1;rounded=0;" parent="1" edge="1">
          <mxGeometry width="50" height="50" relative="1" as="geometry">
            <mxPoint x="420.5" y="379.5" as="sourcePoint" />
            <mxPoint x="180" y="379.5" as="targetPoint" />
          </mxGeometry>
        </mxCell>
        <mxCell id="-AHTXcNS6uZ1yGS0YK7j-5" value="Ouvrir interrupteur" style="edgeLabel;html=1;align=center;verticalAlign=middle;resizable=0;points=[];" parent="-AHTXcNS6uZ1yGS0YK7j-4" vertex="1" connectable="0">
          <mxGeometry x="0.2612" y="-1" relative="1" as="geometry">
            <mxPoint x="32" y="-19" as="offset" />
          </mxGeometry>
        </mxCell>
        <mxCell id="-AHTXcNS6uZ1yGS0YK7j-6" value="Loop" style="shape=umlFrame;whiteSpace=wrap;html=1;pointerEvents=0;" parent="1" vertex="1">
          <mxGeometry x="100" y="180" width="640" height="230" as="geometry" />
        </mxCell>
        <mxCell id="-AHTXcNS6uZ1yGS0YK7j-8" value="sortir par la porte&lt;br&gt;&amp;nbsp;de la zone parking" style="html=1;verticalAlign=bottom;endArrow=block;curved=0;rounded=0;" parent="1" edge="1">
          <mxGeometry x="0.0042" y="10" width="80" relative="1" as="geometry">
            <mxPoint x="180" y="490" as="sourcePoint" />
            <mxPoint x="420" y="490" as="targetPoint" />
            <mxPoint as="offset" />
          </mxGeometry>
        </mxCell>
        <mxCell id="-AHTXcNS6uZ1yGS0YK7j-9" value="ref" style="shape=umlFrame;whiteSpace=wrap;html=1;pointerEvents=0;" parent="1" vertex="1">
          <mxGeometry x="140" y="510" width="520" height="60" as="geometry" />
        </mxCell>
        <mxCell id="-AHTXcNS6uZ1yGS0YK7j-10" value="Detection de mouvement" style="text;align=center;fontStyle=1;verticalAlign=middle;spacingLeft=3;spacingRight=3;strokeColor=none;rotatable=0;points=[[0,0.5],[1,0.5]];portConstraint=eastwest;html=1;" parent="1" vertex="1">
          <mxGeometry x="360" y="527" width="80" height="26" as="geometry" />
        </mxCell>
        <mxCell id="-AHTXcNS6uZ1yGS0YK7j-11" value="" style="endArrow=classic;html=1;rounded=0;" parent="1" target="Dk-oPEJcy97Ib1sJZU_--23" edge="1">
          <mxGeometry width="50" height="50" relative="1" as="geometry">
            <mxPoint x="619.5" y="610" as="sourcePoint" />
            <mxPoint x="429.5" y="610" as="targetPoint" />
          </mxGeometry>
        </mxCell>
        <mxCell id="-AHTXcNS6uZ1yGS0YK7j-12" value="émettre signal de mouvement" style="edgeLabel;html=1;align=center;verticalAlign=middle;resizable=0;points=[];" parent="-AHTXcNS6uZ1yGS0YK7j-11" vertex="1" connectable="0">
          <mxGeometry x="0.2612" y="-1" relative="1" as="geometry">
            <mxPoint x="20" y="-9" as="offset" />
          </mxGeometry>
        </mxCell>
        <mxCell id="-AHTXcNS6uZ1yGS0YK7j-13" value="" style="endArrow=classic;html=1;rounded=0;" parent="1" target="Dk-oPEJcy97Ib1sJZU_--21" edge="1">
          <mxGeometry width="50" height="50" relative="1" as="geometry">
            <mxPoint x="420" y="640" as="sourcePoint" />
            <mxPoint x="190" y="640" as="targetPoint" />
            <Array as="points">
              <mxPoint x="350.5" y="640" />
            </Array>
          </mxGeometry>
        </mxCell>
        <mxCell id="-AHTXcNS6uZ1yGS0YK7j-14" value="Ouvrir interrupteur" style="edgeLabel;html=1;align=center;verticalAlign=middle;resizable=0;points=[];" parent="-AHTXcNS6uZ1yGS0YK7j-13" vertex="1" connectable="0">
          <mxGeometry x="0.2612" y="-1" relative="1" as="geometry">
            <mxPoint x="32" y="-19" as="offset" />
          </mxGeometry>
        </mxCell>
        <mxCell id="-AHTXcNS6uZ1yGS0YK7j-15" value="" style="endArrow=classic;html=1;rounded=0;" parent="1" edge="1">
          <mxGeometry width="50" height="50" relative="1" as="geometry">
            <mxPoint x="420.5" y="720" as="sourcePoint" />
            <mxPoint x="180" y="720" as="targetPoint" />
          </mxGeometry>
        </mxCell>
        <mxCell id="-AHTXcNS6uZ1yGS0YK7j-16" value="fermer l&#39;interrupteur" style="edgeLabel;html=1;align=center;verticalAlign=middle;resizable=0;points=[];" parent="-AHTXcNS6uZ1yGS0YK7j-15" vertex="1" connectable="0">
          <mxGeometry x="0.2612" y="-1" relative="1" as="geometry">
            <mxPoint x="32" y="-19" as="offset" />
          </mxGeometry>
        </mxCell>
        <mxCell id="-AHTXcNS6uZ1yGS0YK7j-17" value="" style="edgeStyle=segmentEdgeStyle;endArrow=classic;html=1;curved=0;rounded=0;endSize=8;startSize=8;exitX=0.485;exitY=0.788;exitDx=0;exitDy=0;exitPerimeter=0;" parent="1" edge="1">
          <mxGeometry width="50" height="50" relative="1" as="geometry">
            <mxPoint x="419.99999999999994" y="639.9999999999999" as="sourcePoint" />
            <mxPoint x="421.45" y="699.92" as="targetPoint" />
            <Array as="points">
              <mxPoint x="419.95" y="660" />
              <mxPoint x="481.95000000000005" y="660" />
              <mxPoint x="481.95000000000005" y="700" />
            </Array>
          </mxGeometry>
        </mxCell>
        <mxCell id="-AHTXcNS6uZ1yGS0YK7j-20" value="Compte&amp;nbsp;&lt;div&gt;à&lt;/div&gt;&lt;div&gt;Rebours 120 sec&lt;/div&gt;" style="text;html=1;align=center;verticalAlign=middle;resizable=0;points=[];autosize=1;strokeColor=none;fillColor=none;" parent="1" vertex="1">
          <mxGeometry x="485" y="660" width="110" height="60" as="geometry" />
        </mxCell>
        <mxCell id="-AHTXcNS6uZ1yGS0YK7j-21" value="Alt" style="shape=umlFrame;whiteSpace=wrap;html=1;pointerEvents=0;" parent="1" vertex="1">
          <mxGeometry x="100" y="740" width="610" height="210" as="geometry" />
        </mxCell>
        <mxCell id="-AHTXcNS6uZ1yGS0YK7j-22" value="Detection de mouvement" style="text;align=center;fontStyle=1;verticalAlign=middle;spacingLeft=3;spacingRight=3;strokeColor=none;rotatable=0;points=[[0,0.5],[1,0.5]];portConstraint=eastwest;html=1;" parent="1" vertex="1">
          <mxGeometry x="360" y="853" width="80" height="26" as="geometry" />
        </mxCell>
        <mxCell id="-AHTXcNS6uZ1yGS0YK7j-23" value="ref" style="shape=umlFrame;whiteSpace=wrap;html=1;pointerEvents=0;" parent="1" vertex="1">
          <mxGeometry x="140" y="836" width="520" height="60" as="geometry" />
        </mxCell>
        <mxCell id="-AHTXcNS6uZ1yGS0YK7j-24" value="Détèction uniquement&lt;br&gt;sortir par la porte&lt;br&gt;&amp;nbsp;de la zone parking" style="html=1;verticalAlign=bottom;endArrow=block;curved=0;rounded=0;" parent="1" edge="1">
          <mxGeometry x="0.0042" y="10" width="80" relative="1" as="geometry">
            <mxPoint x="180" y="810" as="sourcePoint" />
            <mxPoint x="420" y="810" as="targetPoint" />
            <mxPoint as="offset" />
          </mxGeometry>
        </mxCell>
        <mxCell id="-AHTXcNS6uZ1yGS0YK7j-26" value="" style="endArrow=classic;html=1;rounded=0;" parent="1" edge="1">
          <mxGeometry width="50" height="50" relative="1" as="geometry">
            <mxPoint x="420.5" y="930" as="sourcePoint" />
            <mxPoint x="180" y="930" as="targetPoint" />
          </mxGeometry>
        </mxCell>
        <mxCell id="-AHTXcNS6uZ1yGS0YK7j-27" value="fermer l&#39;interrupteur" style="edgeLabel;html=1;align=center;verticalAlign=middle;resizable=0;points=[];" parent="-AHTXcNS6uZ1yGS0YK7j-26" vertex="1" connectable="0">
          <mxGeometry x="0.2612" y="-1" relative="1" as="geometry">
            <mxPoint x="32" y="-19" as="offset" />
          </mxGeometry>
        </mxCell>
        <mxCell id="Dk-oPEJcy97Ib1sJZU_--18" value="ref" style="shape=umlFrame;whiteSpace=wrap;html=1;pointerEvents=0;fillColor=#dae8fc;strokeColor=#6c8ebf;gradientColor=none;fillStyle=auto;" parent="1" vertex="1">
          <mxGeometry x="140" y="260" width="520" height="60" as="geometry" />
        </mxCell>
        <mxCell id="Dk-oPEJcy97Ib1sJZU_--19" value="Detection de mouvement" style="text;align=center;fontStyle=1;verticalAlign=middle;spacingLeft=3;spacingRight=3;rotatable=0;points=[[0,0.5],[1,0.5]];portConstraint=eastwest;html=1;fillColor=#f5f5f5;fontColor=#333333;strokeColor=none;" parent="1" vertex="1">
          <mxGeometry x="200" y="277" width="430" height="33" as="geometry" />
        </mxCell>
        <mxCell id="-AHTXcNS6uZ1yGS0YK7j-28" value="Detection de mouvement" style="text;align=center;fontStyle=1;verticalAlign=middle;spacingLeft=3;spacingRight=3;rotatable=0;points=[[0,0.5],[1,0.5]];portConstraint=eastwest;html=1;fillColor=#f5f5f5;fontColor=#333333;strokeColor=none;" parent="1" vertex="1">
          <mxGeometry x="200" y="523.5" width="430" height="33" as="geometry" />
        </mxCell>
        <mxCell id="-AHTXcNS6uZ1yGS0YK7j-29" value="Detection de mouvement" style="text;align=center;fontStyle=1;verticalAlign=middle;spacingLeft=3;spacingRight=3;rotatable=0;points=[[0,0.5],[1,0.5]];portConstraint=eastwest;html=1;fillColor=#f5f5f5;fontColor=#333333;strokeColor=none;" parent="1" vertex="1">
          <mxGeometry x="200" y="853" width="430" height="33" as="geometry" />
        </mxCell>
        <mxCell id="-AHTXcNS6uZ1yGS0YK7j-30" value="Employe" style="text;html=1;align=center;verticalAlign=middle;resizable=0;points=[];autosize=1;strokeColor=none;fillColor=none;" parent="1" vertex="1">
          <mxGeometry x="145" y="60" width="70" height="30" as="geometry" />
        </mxCell>
        <mxCell id="-AHTXcNS6uZ1yGS0YK7j-31" value="SM" style="text;html=1;align=center;verticalAlign=middle;resizable=0;points=[];autosize=1;strokeColor=none;fillColor=none;" parent="1" vertex="1">
          <mxGeometry x="600" y="60" width="40" height="30" as="geometry" />
        </mxCell>
      </root>
    </mxGraphModel>
  </diagram>
</mxfile>
